<?xml version="1.0" encoding="UTF-8" standalone="no"?>
<!-- Created with Inkscape (http://www.inkscape.org/) -->

<svg
   width="210mm"
   height="297mm"
   viewBox="0 0 210 297"
   version="1.1"
   id="svg5"
   inkscape:version="1.1.2 (0a00cf5339, 2022-02-04, custom)"
   sodipodi:docname="exper.svg"
   inkscape:export-filename="/home/apricot/Documents/GraduationProject/2.中期/exper.png"
   inkscape:export-xdpi="96"
   inkscape:export-ydpi="96"
   xmlns:inkscape="http://www.inkscape.org/namespaces/inkscape"
   xmlns:sodipodi="http://sodipodi.sourceforge.net/DTD/sodipodi-0.dtd"
   xmlns:xlink="http://www.w3.org/1999/xlink"
   xmlns="http://www.w3.org/2000/svg"
   xmlns:svg="http://www.w3.org/2000/svg">
  <sodipodi:namedview
     id="namedview7"
     pagecolor="#ffffff"
     bordercolor="#666666"
     borderopacity="1.0"
     inkscape:pageshadow="2"
     inkscape:pageopacity="0.0"
     inkscape:pagecheckerboard="0"
     inkscape:document-units="mm"
     showgrid="false"
     inkscape:zoom="1.587419"
     inkscape:cx="330.72553"
     inkscape:cy="540.50002"
     inkscape:window-width="1920"
     inkscape:window-height="1013"
     inkscape:window-x="0"
     inkscape:window-y="38"
     inkscape:window-maximized="1"
     inkscape:current-layer="layer1" />
  <defs
     id="defs2">
    <linearGradient
       inkscape:collect="always"
       id="linearGradient2881">
      <stop
         style="stop-color:#000000;stop-opacity:1;"
         offset="0"
         id="stop2877" />
      <stop
         style="stop-color:#000000;stop-opacity:0;"
         offset="1"
         id="stop2879" />
    </linearGradient>
    <inkscape:perspective
       sodipodi:type="inkscape:persp3d"
       inkscape:vp_x="-42.342222 : 46.312227 : 0"
       inkscape:vp_y="-0.45035892 : 74.272122 : 0"
       inkscape:vp_z="199.66945 : 59.553216 : 0"
       inkscape:persp3d-origin="102.23643 : 125.71111 : 1"
       id="perspective159" />
    <radialGradient
       inkscape:collect="always"
       xlink:href="#linearGradient2881"
       id="radialGradient2885"
       cx="168.78365"
       cy="141.9512"
       fx="168.78365"
       fy="141.9512"
       r="3.3772082"
       gradientTransform="matrix(1,0,0,2.516981,1.5737497,-215.11793)"
       gradientUnits="userSpaceOnUse" />
    <radialGradient
       inkscape:collect="always"
       xlink:href="#linearGradient2881"
       id="radialGradient2885-6"
       cx="168.78365"
       cy="141.9512"
       fx="168.78365"
       fy="141.9512"
       r="3.3772082"
       gradientTransform="matrix(1,0,0,2.516981,-123.0558,-216.11902)"
       gradientUnits="userSpaceOnUse" />
  </defs>
  <g
     inkscape:label="图层 1"
     inkscape:groupmode="layer"
     id="layer1">
    <g
       sodipodi:type="inkscape:box3d"
       id="g587"
       style="fill:#cccccc"
       inkscape:perspectiveID="#perspective159"
       inkscape:corner0="0.41481905 : 0.67351326 : 0 : 1"
       inkscape:corner7="-0.19224866 : 0.021741996 : 0.0088488018 : 1">
      <path
         sodipodi:type="inkscape:box3dside"
         id="path599"
         style="fill:#e9e9ff;fill-rule:evenodd;stroke:none;stroke-width:0.155062;stroke-linejoin:round"
         inkscape:box3dsidetype="11"
         d="m 86.135584,101.52747 25.704596,28.11465 0.29353,48.40844 -25.704595,-28.11466 z"
         points="111.84018,129.64212 112.13371,178.05056 86.429115,149.9359 86.135584,101.52747 " />
      <path
         sodipodi:type="inkscape:box3dside"
         id="path589"
         style="fill:#353564;fill-rule:evenodd;stroke:none;stroke-width:0.155062;stroke-linejoin:round"
         inkscape:box3dsidetype="6"
         d="m 84.368749,102.05444 0.293531,48.40844 1.766835,-0.52698 -0.293531,-48.40843 z"
         points="84.66228,150.46288 86.429115,149.9359 86.135584,101.52747 84.368749,102.05444 " />
      <path
         sodipodi:type="inkscape:box3dside"
         id="path597"
         style="fill:#afafde;fill-rule:evenodd;stroke:none;stroke-width:0.155062;stroke-linejoin:round"
         inkscape:box3dsidetype="13"
         d="m 84.66228,150.46288 25.7046,28.11465 1.76683,-0.52697 -25.704595,-28.11466 z"
         points="110.36688,178.57753 112.13371,178.05056 86.429115,149.9359 84.66228,150.46288 " />
      <path
         sodipodi:type="inkscape:box3dside"
         id="path591"
         style="fill:#4d4d9f;fill-rule:evenodd;stroke:none;stroke-width:0.155062;stroke-linejoin:round"
         inkscape:box3dsidetype="5"
         d="m 84.368749,102.05444 25.704601,28.11466 1.76683,-0.52698 -25.704596,-28.11465 z"
         points="110.07335,130.1691 111.84018,129.64212 86.135584,101.52747 84.368749,102.05444 " />
      <path
         sodipodi:type="inkscape:box3dside"
         id="path595"
         style="fill:#d7d7ff;fill-rule:evenodd;stroke:none;stroke-width:0.155062;stroke-linejoin:round"
         inkscape:box3dsidetype="14"
         d="m 110.07335,130.1691 0.29353,48.40843 1.76683,-0.52697 -0.29353,-48.40844 z"
         points="110.36688,178.57753 112.13371,178.05056 111.84018,129.64212 110.07335,130.1691 " />
      <path
         sodipodi:type="inkscape:box3dside"
         id="path593"
         style="fill:#8686bf;fill-rule:evenodd;stroke:none;stroke-width:0.155062;stroke-linejoin:round"
         inkscape:box3dsidetype="3"
         d="m 84.368749,102.05444 25.704601,28.11466 0.29353,48.40843 -25.7046,-28.11465 z"
         points="110.07335,130.1691 110.36688,178.57753 84.66228,150.46288 84.368749,102.05444 " />
    </g>
    <path
       style="fill:none;stroke:#000000;stroke-width:0.264583px;stroke-linecap:butt;stroke-linejoin:miter;stroke-opacity:1"
       d="m 112.25788,141.91531 c 53.80218,-0.14109 53.80218,-0.14109 53.80218,-0.14109"
       id="path1219" />
    <rect
       style="fill:#cccccc;stroke-width:0.264583"
       id="rect1586"
       width="31.03116"
       height="16.031569"
       x="17.695972"
       y="133.08086"
       rx="4.2183752"
       ry="6.8149147" />
    <path
       style="fill:#d40000"
       id="path1744"
       sodipodi:type="arc"
       sodipodi:cx="33.675785"
       sodipodi:cy="141.3241"
       sodipodi:rx="0.8284716"
       sodipodi:ry="0.91984093"
       sodipodi:start="6.26015"
       sodipodi:end="6.2503438"
       sodipodi:arc-type="arc"
       d="m 34.504037,141.30291 a 0.8284716,0.91984093 0 0 1 -0.807139,0.94073 0.8284716,0.91984093 0 0 1 -0.849261,-0.89385 0.8284716,0.91984093 0 0 1 0.802975,-0.94511 0.8284716,0.91984093 0 0 1 0.853198,0.88921"
       sodipodi:open="true" />
    <rect
       style="fill:#b3b3b3;stroke-width:0.264583"
       id="rect1892"
       width="9.6973324"
       height="16.000612"
       x="163.56253"
       y="134.12192"
       rx="4.2183843"
       ry="6.8149257" />
    <path
       style="fill:#b3b3b3;stroke:url(#radialGradient2885);stroke-opacity:1"
       id="path2016"
       sodipodi:type="arc"
       sodipodi:cx="170.35739"
       sodipodi:cy="142.17055"
       sodipodi:rx="2.8771765"
       sodipodi:ry="8.0004492"
       sodipodi:start="6.260147"
       sodipodi:end="6.2503382"
       sodipodi:open="true"
       sodipodi:arc-type="arc"
       d="m 173.2338,141.98625 a 2.8771765,8.0004492 0 0 1 -2.80308,8.18215 2.8771765,8.0004492 0 0 1 -2.94938,-7.77433 2.8771765,8.0004492 0 0 1 2.78861,-8.22028 2.8771765,8.0004492 0 0 1 2.96307,7.73401" />
    <path
       style="fill:#b3b3b3;stroke:url(#radialGradient2885-6);stroke-opacity:1"
       id="path2016-3"
       sodipodi:type="arc"
       sodipodi:cx="45.727848"
       sodipodi:cy="141.16946"
       sodipodi:rx="2.8771765"
       sodipodi:ry="8.0004492"
       sodipodi:start="6.260147"
       sodipodi:end="6.2503382"
       sodipodi:open="true"
       sodipodi:arc-type="arc"
       d="m 48.604261,140.98516 a 2.8771765,8.0004492 0 0 1 -2.80308,8.18215 2.8771765,8.0004492 0 0 1 -2.949386,-7.77432 2.8771765,8.0004492 0 0 1 2.788615,-8.22028 2.8771765,8.0004492 0 0 1 2.963063,7.73401" />
    <path
       style="fill:none;stroke:#000000;stroke-width:0.209025px;stroke-linecap:butt;stroke-linejoin:miter;stroke-opacity:1"
       d="m 45.811786,141.37349 c 50.418718,0.35757 50.418718,0.35757 50.418718,0.35757"
       id="path1104" />
  </g>
</svg>
