<?xml version="1.0" encoding="UTF-8" standalone="no"?>
<!-- Created with Inkscape (http://www.inkscape.org/) -->

<svg
   width="210mm"
   height="297mm"
   viewBox="0 0 210 297"
   version="1.1"
   id="svg5"
   inkscape:version="1.1.2 (0a00cf5339, 2022-02-04, custom)"
   sodipodi:docname="spere.svg"
   xmlns:inkscape="http://www.inkscape.org/namespaces/inkscape"
   xmlns:sodipodi="http://sodipodi.sourceforge.net/DTD/sodipodi-0.dtd"
   xmlns="http://www.w3.org/2000/svg"
   xmlns:svg="http://www.w3.org/2000/svg">
  <sodipodi:namedview
     id="namedview7"
     pagecolor="#ffffff"
     bordercolor="#666666"
     borderopacity="1.0"
     inkscape:pageshadow="2"
     inkscape:pageopacity="0.0"
     inkscape:pagecheckerboard="0"
     inkscape:document-units="mm"
     showgrid="false"
     inkscape:zoom="1.1224747"
     inkscape:cx="56.125984"
     inkscape:cy="577.29584"
     inkscape:window-width="1920"
     inkscape:window-height="1013"
     inkscape:window-x="0"
     inkscape:window-y="38"
     inkscape:window-maximized="1"
     inkscape:current-layer="layer1" />
  <defs
     id="defs2" />
  <g
     inkscape:label="图层 1"
     inkscape:groupmode="layer"
     id="layer1">
    <path
       style="fill:#f9f9f9;stroke:#000000;stroke-opacity:1"
       id="path1441"
       sodipodi:type="arc"
       sodipodi:cx="-145.90207"
       sodipodi:cy="101.77042"
       sodipodi:rx="59.80714"
       sodipodi:ry="64.765289"
       sodipodi:start="6.260147"
       sodipodi:end="3.1412844"
       sodipodi:arc-type="arc"
       d="m -86.1108,100.27846 a 59.80714,64.765289 0 0 1 -29.09048,57.07297 59.80714,64.765289 0 0 1 -60.19504,0.76096 59.80714,64.765289 0 0 1 -30.31289,-56.32201"
       sodipodi:open="true"
       transform="matrix(0.01831503,-0.99983227,0.99987804,0.01561741,0,0)" />
    <path
       style="fill:#f9f9f9;stroke:#000000;stroke-opacity:1"
       id="path846"
       sodipodi:type="arc"
       sodipodi:cx="9.8797064"
       sodipodi:cy="-173.79588"
       sodipodi:rx="52.855499"
       sodipodi:ry="52.990051"
       sodipodi:start="6.260147"
       sodipodi:end="6.2503382"
       sodipodi:open="true"
       sodipodi:arc-type="arc"
       d="m 62.721179,-175.01658 a 52.855499,52.990051 0 0 1 -51.494304,54.19353 52.855499,52.990051 0 0 1 -54.182035,-51.49234 52.855499,52.990051 0 0 1 51.2285757,-54.44607 52.855499,52.990051 0 0 1 54.4332783,51.22532"
       transform="matrix(-0.60406695,0.79693357,-0.59621057,-0.8028281,0,0)" />
    <path
       style="fill:#f9f9f9;stroke:#000000;stroke-opacity:1"
       id="path1062"
       sodipodi:type="arc"
       sodipodi:cx="97.779762"
       sodipodi:cy="147.47397"
       sodipodi:rx="2.2012613"
       sodipodi:ry="2.2012613"
       sodipodi:start="6.260147"
       sodipodi:end="6.2503382"
       sodipodi:open="true"
       sodipodi:arc-type="arc"
       d="m 99.980439,147.42326 a 2.2012613,2.2012613 0 0 1 -2.144571,2.25125 2.2012613,2.2012613 0 0 1 -2.256508,-2.13904 2.2012613,2.2012613 0 0 1 2.133505,-2.26175 2.2012613,2.2012613 0 0 1 2.266971,2.12796" />
    <path
       style="fill:none;stroke:#000000;stroke-width:0.264583px;stroke-linecap:butt;stroke-linejoin:miter;stroke-opacity:1"
       d="M 97.662229,147.36066 121.82164,97.573773 117.8353,99.896639"
       id="path1762" />
    <path
       style="fill:none;stroke:#000000;stroke-width:0.264583px;stroke-linecap:butt;stroke-linejoin:miter;stroke-opacity:1"
       d="m 121.82164,97.573771 v 0 l 0.8137,4.155799"
       id="path1764" />
  </g>
</svg>
